<?xml version="1.0" encoding="UTF-8" standalone="no"?>
<svg
    xmlns="http://www.w3.org/2000/svg"
    width="3300"
    height="2250"
    id="svg2"
    version="1.1">
    <g
        id="field"
        transform="translate(150, 100)">

        <!--
          == Colors ==

          yellow:        #ffb901
          yellow-darker: #dea100
          red:           #e91009
          red-darker:    #ba0d07
          green:         #4ea836
          green-darker:  #3c822a
          gray:          #bfc1ab
          gray-draker:   #979988
          brown:         #7c382d
          brown-darker:  #54261f
          black:         #010204
        -->

        <!-- Main Field -->
        <rect
            style="fill:#bfc1ab;stroke:none"
            id="main_gray_border"
            width="3040"
            height="2040"
            x="-20"
            y="-20" />
        <rect
            style="fill:#dea100;stroke:none"
            id="yellow_border"
            width="420"
            height="720"
            x="-20"
            y="-20" />
        <rect
            style="fill:#ba0d07;stroke:none"
            id="red_border"
            width="420"
            height="720"
            x="2600"
            y="-20" />
        <rect
            style="fill:#54261f;stroke:none"
            id="yellow_mammoth"
            width="700"
            height="60"
            x="400"
            y="-60" />
        <rect
            style="fill:#54261f;stroke:none"
            id="red_mammoth"
            width="700"
            height="60"
            x="1900"
            y="-60" />
        <rect
            style="fill:#979988;stroke:none"
            id="fresco"
            width="800"
            height="40"
            x="1100"
            y="-40" />
        <rect
            style="fill:#4ea836;stroke:none"
            id="mainfield"
            width="3000"
            height="2000"
            x="0"
            y="0" />

        <!-- Start Zones -->
        <path
            style="fill:#bfc1ab;stroke:none;"
            id="yellow_start_zone"
            d="M 0 0 h 390 v 300 a 390 390 0 0 1 -390 390 z" />
        <path
            style="fill:none;stroke:#ffb901;stroke-width:20"
            id="yellow_start_zone_border"
            d="M 390 0 v 300 a 390 390 0 0 1 -390 390" />
        <circle
            style="fill:#ffb901;stroke:none;"
            id="yellow_hand"
            cx="180"
            cy="300"
            r="50" />
        <path
            style="fill:#bfc1ab;stroke:none;"
            id="red_start_zone"
            d="M 3000 0 v 690 a 390 390 0 0 1 -390 -390 v -300 z" />
        <path
            style="fill:none;stroke:#e91009;stroke-width:20"
            id="red_start_zone_border"
            d="M 3000 690 a 390 390 0 0 1 -390 -390 v -300" />
        <circle
            style="fill:#e91009;stroke:none;"
            id="red_hand"
            cx="2820"
            cy="300"
            r="50" />

        <!-- Torchs -->
        <rect
            style="fill:#65665b;stroke:none"
            id="yellow_torch_11"
            width="22"
            height="22"
            x="0"
            y="731" />
        <rect
            style="fill:#65665b;stroke:none"
            id="yellow_torch_12"
            width="22"
            height="22"
            x="0"
            y="825" />
        <rect
            style="fill:#65665b;stroke:none"
            id="yellow_torch_21"
            width="22"
            height="22"
            x="1231"
            y="1978" />
        <rect
            style="fill:#65665b;stroke:none"
            id="yellow_torch_22"
            width="22"
            height="22"
            x="1325"
            y="1978" />
        <rect
            style="fill:#65665b;stroke:none"
            id="red_torch_11"
            width="22"
            height="22"
            x="2978"
            y="731" />
        <rect
            style="fill:#65665b;stroke:none"
            id="red_torch_12"
            width="22"
            height="22"
            x="2978"
            y="825" />
        <rect
            style="fill:#65665b;stroke:none"
            id="yellow_torch_21"
            width="22"
            height="22"
            x="1631"
            y="1978" />
        <rect
            style="fill:#65665b;stroke:none"
            id="yellow_torch_22"
            width="22"
            height="22"
            x="1725"
            y="1978" />

        <!-- Fireplaces -->
        <path
            style="fill:#7c382d;stroke:none;"
            id="yellow_fireplace"
            d="M 0 2000 h 250 a 250 250 0 0 0 -250 -250 z" />
        <path
            style="fill:#7c382d;stroke:none;"
            id="red_fireplace"
            d="M 3000 2000 v -250 a 250 250 0 0 0 -250 250 z" />

        <!-- Hill -->
        <circle
            style="fill:#7c382d;stroke:none;"
            id="hill"
            cx="1500"
            cy="1000"
            r="150" />

        <!-- Trees -->
        <circle
            style="fill:#54261f;stroke:none;"
            id="yellow_tree_trunk_1"
            cx="0"
            cy="1300"
            r="25" />
        <circle
            style="fill:#3c822a;stroke:none;fill-opacity:0.5"
            id="yellow_tree_1"
            cx="0"
            cy="1300"
            r="150" />
        <circle
            style="fill:#54261f;stroke:none;"
            id="yellow_tree_trunk_2"
            cx="700"
            cy="2000"
            r="25" />
        <circle
            style="fill:#3c822a;stroke:none;fill-opacity:0.5"
            id="yellow_tree_2"
            cx="700"
            cy="2000"
            r="150" />
        <circle
            style="fill:#54261f;stroke:none;"
            id="red_tree_trunk_1"
            cx="3000"
            cy="1300"
            r="25" />
        <circle
            style="fill:#3c822a;stroke:none;fill-opacity:0.5"
            id="red_tree_1"
            cx="3000"
            cy="1300"
            r="150" />
        <circle
            style="fill:#54261f;stroke:none;"
            id="red_tree_trunk_2"
            cx="2300"
            cy="2000"
            r="25" />
        <circle
            style="fill:#3c822a;stroke:none;fill-opacity:0.5"
            id="red_tree_2"
            cx="2300"
            cy="2000"
            r="150" />

        <!-- Paths -->
        <path
            style="fill:none;stroke:#010204;stroke-width:20"
            id="yellow_black_path"
            d="M 0 600 h 1200 a 150 150 0 0 0 150 -150 v -450" />
        <path
            style="fill:none;stroke:#010204;stroke-width:20"
            id="red_black_path"
            d="M 3000 600 h -1200 a 150 150 0 0 1 -150 -150 v -450" />

        <!-- Baskets -->
        <rect
            style="fill:#3c822a;stroke:none"
            id="yellow_basket_border_green"
            width="700"
            height="130"
            x="400"
            y="0" />
        <rect
            style="fill:#dea100;stroke:none"
            id="yellow_basket_border_yellow"
            width="700"
            height="170"
            x="400"
            y="130" />
        <rect
            style="fill:#ffb901;stroke:none"
            id="yellow_basket"
            width="656"
            height="148"
            x="422"
            y="130" />
        <rect
            style="fill:#3c822a;stroke:none"
            id="red_basket_border_green"
            width="700"
            height="130"
            x="1900"
            y="0" />
        <rect
            style="fill:#ba0d07;stroke:none"
            id="red_basket_border_red"
            width="700"
            height="170"
            x="1900"
            y="130" />
        <rect
            style="fill:#e91009;stroke:none"
            id="red_basket"
            width="656"
            height="148"
            x="1922"
            y="130" />

        <!-- Beacon places -->
        <rect
            style="fill:#ba0d07;stroke:none"
            id="red_beacon_1"
            width="80"
            height="80"
            x="-100"
            y="-100" />
        <rect
            style="fill:#dea100;stroke:none"
            id="yellow_beacon_1"
            width="80"
            height="80"
            x="-100"
            y="960" />
        <rect
            style="fill:#ba0d07;stroke:none"
            id="red_beacon_2"
            width="80"
            height="80"
            x="-100"
            y="2020" />
        <rect
            style="fill:#dea100;stroke:none"
            id="yellow_beacon_2"
            width="80"
            height="80"
            x="3020"
            y="-100" />
        <rect
            style="fill:#ba0d07;stroke:none"
            id="red_beacon_3"
            width="80"
            height="80"
            x="3020"
            y="960" />
        <rect
            style="fill:#dea100;stroke:none"
            id="yellow_beacon_3"
            width="80"
            height="80"
            x="3020"
            y="2020" />
    </g>
</svg>
